<svg width="30" height="33" viewBox="0 0 30 33" fill="none" xmlns="http://www.w3.org/2000/svg">
<g clip-path="url(#clip0_1_2)" filter="url(#filter0_d_1_2)">
<path d="M10.7331 2.99269C10.3794 2.99269 10.0403 3.13316 9.79026 3.38321C9.54022 3.63326 9.39974 3.9724 9.39974 4.32602C9.39974 4.67964 9.54022 5.01878 9.79026 5.26883C10.0403 5.51888 10.3794 5.65935 10.7331 5.65935C11.0867 5.65935 11.4258 5.51888 11.6759 5.26883C11.9259 5.01878 12.0664 4.67964 12.0664 4.32602C12.0664 3.9724 11.9259 3.63326 11.6759 3.38321C11.4258 3.13316 11.0867 2.99269 10.7331 2.99269ZM6.95974 2.99269C7.23521 2.21198 7.74606 1.53593 8.42187 1.05774C9.09769 0.579548 9.90519 0.322754 10.7331 0.322754C11.561 0.322754 12.3685 0.579548 13.0443 1.05774C13.7201 1.53593 14.2309 2.21198 14.5064 2.99269H24.0664C24.42 2.99269 24.7592 3.13316 25.0092 3.38321C25.2593 3.63326 25.3997 3.9724 25.3997 4.32602C25.3997 4.67964 25.2593 5.01878 25.0092 5.26883C24.7592 5.51888 24.42 5.65935 24.0664 5.65935H14.5064C14.2309 6.44007 13.7201 7.11611 13.0443 7.5943C12.3685 8.07249 11.561 8.32929 10.7331 8.32929C9.90519 8.32929 9.09769 8.07249 8.42187 7.5943C7.74606 7.11611 7.23521 6.44007 6.95974 5.65935H5.39974C5.04612 5.65935 4.70698 5.51888 4.45693 5.26883C4.20688 5.01878 4.06641 4.67964 4.06641 4.32602C4.06641 3.9724 4.20688 3.63326 4.45693 3.38321C4.70698 3.13316 5.04612 2.99269 5.39974 2.99269H6.95974ZM18.7331 10.9927C18.3795 10.9927 18.0403 11.1332 17.7903 11.3832C17.5402 11.6333 17.3997 11.9724 17.3997 12.326C17.3997 12.6796 17.5402 13.0188 17.7903 13.2688C18.0403 13.5189 18.3795 13.6594 18.7331 13.6594C19.0867 13.6594 19.4258 13.5189 19.6759 13.2688C19.9259 13.0188 20.0664 12.6796 20.0664 12.326C20.0664 11.9724 19.9259 11.6333 19.6759 11.3832C19.4258 11.1332 19.0867 10.9927 18.7331 10.9927ZM14.9597 10.9927C15.2352 10.212 15.7461 9.53593 16.4219 9.05774C17.0977 8.57955 17.9052 8.32275 18.7331 8.32275C19.561 8.32275 20.3685 8.57955 21.0443 9.05774C21.7201 9.53593 22.2309 10.212 22.5064 10.9927H24.0664C24.42 10.9927 24.7592 11.1332 25.0092 11.3832C25.2593 11.6333 25.3997 11.9724 25.3997 12.326C25.3997 12.6796 25.2593 13.0188 25.0092 13.2688C24.7592 13.5189 24.42 13.6594 24.0664 13.6594H22.5064C22.2309 14.4401 21.7201 15.1161 21.0443 15.5943C20.3685 16.0725 19.561 16.3293 18.7331 16.3293C17.9052 16.3293 17.0977 16.0725 16.4219 15.5943C15.7461 15.1161 15.2352 14.4401 14.9597 13.6594H5.39974C5.04612 13.6594 4.70698 13.5189 4.45693 13.2688C4.20688 13.0188 4.06641 12.6796 4.06641 12.326C4.06641 11.9724 4.20688 11.6333 4.45693 11.3832C4.70698 11.1332 5.04612 10.9927 5.39974 10.9927H14.9597ZM10.7331 18.9927C10.3794 18.9927 10.0403 19.1332 9.79026 19.3832C9.54022 19.6333 9.39974 19.9724 9.39974 20.326C9.39974 20.6796 9.54022 21.0188 9.79026 21.2688C10.0403 21.5189 10.3794 21.6594 10.7331 21.6594C11.0867 21.6594 11.4258 21.5189 11.6759 21.2688C11.9259 21.0188 12.0664 20.6796 12.0664 20.326C12.0664 19.9724 11.9259 19.6333 11.6759 19.3832C11.4258 19.1332 11.0867 18.9927 10.7331 18.9927ZM6.95974 18.9927C7.23521 18.212 7.74606 17.5359 8.42187 17.0577C9.09769 16.5795 9.90519 16.3228 10.7331 16.3228C11.561 16.3228 12.3685 16.5795 13.0443 17.0577C13.7201 17.5359 14.2309 18.212 14.5064 18.9927H24.0664C24.42 18.9927 24.7592 19.1332 25.0092 19.3832C25.2593 19.6333 25.3997 19.9724 25.3997 20.326C25.3997 20.6796 25.2593 21.0188 25.0092 21.2688C24.7592 21.5189 24.42 21.6594 24.0664 21.6594H14.5064C14.2309 22.4401 13.7201 23.1161 13.0443 23.5943C12.3685 24.0725 11.561 24.3293 10.7331 24.3293C9.90519 24.3293 9.09769 24.0725 8.42187 23.5943C7.74606 23.1161 7.23521 22.4401 6.95974 21.6594H5.39974C5.04612 21.6594 4.70698 21.5189 4.45693 21.2688C4.20688 21.0188 4.06641 20.6796 4.06641 20.326C4.06641 19.9724 4.20688 19.6333 4.45693 19.3832C4.70698 19.1332 5.04612 18.9927 5.39974 18.9927H6.95974Z" fill="#B0B0B0"/>
</g>
<defs>
<filter id="filter0_d_1_2" x="0" y="0" width="30" height="33" filterUnits="userSpaceOnUse" color-interpolation-filters="sRGB">
<feFlood flood-opacity="0" result="BackgroundImageFix"/>
<feColorMatrix in="SourceAlpha" type="matrix" values="0 0 0 0 0 0 0 0 0 0 0 0 0 0 0 0 0 0 127 0" result="hardAlpha"/>
<feOffset dy="4"/>
<feGaussianBlur stdDeviation="2"/>
<feComposite in2="hardAlpha" operator="out"/>
<feColorMatrix type="matrix" values="0 0 0 0 0 0 0 0 0 0 0 0 0 0 0 0 0 0 0.25 0"/>
<feBlend mode="normal" in2="BackgroundImageFix" result="effect1_dropShadow_1_2"/>
<feBlend mode="normal" in="SourceGraphic" in2="effect1_dropShadow_1_2" result="shape"/>
</filter>
<clipPath id="clip0_1_2">
<rect width="22" height="25" fill="white" transform="translate(4)"/>
</clipPath>
</defs>
</svg>
