<svg width="45" height="43" viewBox="0 0 45 43" fill="none" xmlns="http://www.w3.org/2000/svg">
<g clip-path="url(#clip0_6_4)">
<path fill-rule="evenodd" clip-rule="evenodd" d="M1.7041 0.397379C0.759042 0.397379 -0.00708008 1.1635 -0.00708008 2.10856C-0.00708008 3.05362 0.759042 3.81974 1.7041 3.81974H4.55607V38.5353C4.55607 41.8505 8.36267 43.7216 10.9876 41.6967L14.024 39.3543C14.215 39.207 14.478 39.1957 14.6809 39.3261L18.8454 42.0033C20.9122 43.332 23.5644 43.332 25.6312 42.0033L29.7957 39.3261C29.9986 39.1957 30.2616 39.207 30.4525 39.3543L33.4889 41.6967C36.1139 43.7216 39.9205 41.8505 39.9205 38.5353V3.81974H42.7725C43.7175 3.81974 44.4836 3.05362 44.4836 2.10856C44.4836 1.1635 43.7175 0.397379 42.7725 0.397379H1.7041ZM13.6824 15.798C13.6824 14.853 14.4485 14.0868 15.3936 14.0868H22.2383C23.1833 14.0868 23.9495 14.853 23.9495 15.798C23.9495 16.7431 23.1833 17.5092 22.2383 17.5092H15.3936C14.4485 17.5092 13.6824 16.7431 13.6824 15.798ZM15.3936 23.2131C14.4485 23.2131 13.6824 23.9793 13.6824 24.9243C13.6824 25.8694 14.4485 26.6355 15.3936 26.6355H22.2383C23.1833 26.6355 23.9495 25.8694 23.9495 24.9243C23.9495 23.9793 23.1833 23.2131 22.2383 23.2131H15.3936ZM27.3718 15.798C27.3718 14.853 28.1379 14.0868 29.083 14.0868H30.2238C31.1689 14.0868 31.935 14.853 31.935 15.798C31.935 16.7431 31.1689 17.5092 30.2238 17.5092H29.083C28.1379 17.5092 27.3718 16.7431 27.3718 15.798ZM29.083 23.2131C28.1379 23.2131 27.3718 23.9793 27.3718 24.9243C27.3718 25.8694 28.1379 26.6355 29.083 26.6355H30.2238C31.1689 26.6355 31.935 25.8694 31.935 24.9243C31.935 23.9793 31.1689 23.2131 30.2238 23.2131H29.083Z" fill="#DDB762"/>
</g>
<defs>
<clipPath id="clip0_6_4">
<rect width="45" height="43" fill="white"/>
</clipPath>
</defs>
</svg>
